<!DOCTYPE svg PUBLIC "-//W3C//DTD SVG 1.1//EN" "http://www.w3.org/Graphics/SVG/1.1/DTD/svg11.dtd">
<!-- Uploaded to: SVG Repo, www.svgrepo.com, Transformed by: SVG Repo Mixer Tools -->
<svg width="800px" height="800px" viewBox="-2.4 -2.4 28.80 28.80" version="1.1" xmlns="http://www.w3.org/2000/svg" xmlns:xlink="http://www.w3.org/1999/xlink" fill="#d3d3d3" stroke="#d3d3d3">
<g id="SVGRepo_bgCarrier" stroke-width="0">
<rect x="-2.4" y="-2.4" width="28.80" height="28.80" rx="14.4" fill="#e6cf00" strokewidth="0"/>
</g>
<g id="SVGRepo_tracerCarrier" stroke-linecap="round" stroke-linejoin="round" stroke="#CCCCCC" stroke-width="4.8"> <title>Bullet-List</title> <g id="Page-1" stroke="none" stroke-width="1" fill="none" fill-rule="evenodd"> <g id="Bullet-List"> <rect id="Rectangle" fill-rule="nonzero" x="0" y="0" width="24" height="24"> </rect> <line x1="10" y1="7" x2="19" y2="7" id="Path" stroke="#0C0310" stroke-width="2" stroke-linecap="round"> </line> <line x1="5" y1="7" x2="5.1" y2="7" id="Path" stroke="#0C0310" stroke-width="2" stroke-linecap="round"> </line> <line x1="10" y1="17" x2="19" y2="17" id="Path" stroke="#0C0310" stroke-width="2" stroke-linecap="round"> </line> <line x1="5" y1="17" x2="5.1" y2="17" id="Path" stroke="#0C0310" stroke-width="2" stroke-linecap="round"> </line> <line x1="10" y1="12" x2="19" y2="12" id="Path" stroke="#0C0310" stroke-width="2" stroke-linecap="round"> </line> <line x1="5" y1="12" x2="5.1" y2="12" id="Path" stroke="#0C0310" stroke-width="2" stroke-linecap="round"> </line> </g> </g> </g>
<g id="SVGRepo_iconCarrier"> <title>Bullet-List</title> <g id="Page-1" stroke="none" stroke-width="1" fill="none" fill-rule="evenodd"> <g id="Bullet-List"> <rect id="Rectangle" fill-rule="nonzero" x="0" y="0" width="24" height="24"> </rect> <line x1="10" y1="7" x2="19" y2="7" id="Path" stroke="#0C0310" stroke-width="2" stroke-linecap="round"> </line> <line x1="5" y1="7" x2="5.1" y2="7" id="Path" stroke="#0C0310" stroke-width="2" stroke-linecap="round"> </line> <line x1="10" y1="17" x2="19" y2="17" id="Path" stroke="#0C0310" stroke-width="2" stroke-linecap="round"> </line> <line x1="5" y1="17" x2="5.1" y2="17" id="Path" stroke="#0C0310" stroke-width="2" stroke-linecap="round"> </line> <line x1="10" y1="12" x2="19" y2="12" id="Path" stroke="#0C0310" stroke-width="2" stroke-linecap="round"> </line> <line x1="5" y1="12" x2="5.1" y2="12" id="Path" stroke="#0C0310" stroke-width="2" stroke-linecap="round"> </line> </g> </g> </g>
</svg>